<?xml version="1.0" standalone="no"?>
<!DOCTYPE svg PUBLIC "-//W3C//DTD SVG 20010904//EN"
 "http://www.w3.org/TR/2001/REC-SVG-20010904/DTD/svg10.dtd">
<svg version="1.0" xmlns="http://www.w3.org/2000/svg"
 width="261.000000pt" height="261.000000pt" viewBox="0 0 261.000000 261.000000"
 preserveAspectRatio="xMidYMid meet">
<metadata>
Created by potrace 1.11, written by Peter Selinger 2001-2013
</metadata>
<g transform="translate(0.000000,261.000000) scale(0.100000,-0.100000)"
fill="#000000" stroke="none">
<path d="M680 2538 c-154 -17 -326 -123 -406 -250 -37 -59 -46 -86 -31 -99 10
-10 9 -24 -3 -73 -13 -53 -15 -173 -14 -871 l1 -810 31 -81 c73 -184 224 -312
401 -339 36 -5 223 -8 354 -6 l37 1 0 175 c0 110 4 175 10 175 6 0 10 -20 10
-44 0 -24 6 -48 13 -53 13 -11 46 -13 48 -4 1 3 3 98 4 211 2 158 -1 210 -11
227 -10 16 -11 22 -1 26 17 5 19 193 1 208 -11 9 -11 15 0 32 18 31 17 727 -2
750 -10 12 -10 16 0 19 18 6 20 208 1 215 -10 4 -10 9 1 26 10 17 13 68 12
204 0 100 -5 185 -9 189 -4 5 -22 9 -40 9 l-32 1 -5 63 c-6 73 -13 79 -86 75
-31 -2 -46 2 -52 13 -11 18 -121 23 -232 11z"/>
<path d="M1706 2528 c-8 -14 -25 -18 -72 -18 -70 0 -72 -2 -70 -77 1 -29 -2
-54 -6 -54 -4 -1 -21 -2 -37 -3 -16 0 -32 -4 -36 -8 -11 -11 -7 -375 4 -396 7
-13 7 -22 0 -29 -14 -14 -14 -190 0 -206 6 -8 6 -18 1 -27 -6 -9 -10 -171 -10
-375 0 -204 4 -366 10 -375 5 -8 5 -19 0 -25 -14 -16 -15 -208 -1 -213 8 -3 8
-9 0 -24 -11 -21 -15 -420 -4 -438 9 -14 45 -12 51 3 2 7 6 31 7 52 1 21 7 40
12 42 6 2 10 -59 9 -172 0 -115 3 -175 10 -178 6 -2 97 -3 201 -2 167 2 198 5
254 24 170 58 305 208 346 383 21 91 21 1626 -1 1706 -10 40 -11 57 -2 71 27
43 -101 203 -221 274 -104 62 -169 78 -325 80 -94 2 -110 0 -120 -15z"/>
</g>
</svg>
